<svg width="22" height="22" viewBox="0 0 22 22" fill="none" xmlns="http://www.w3.org/2000/svg">
<path d="M13.423 10.9993L21.6485 2.77343C21.8748 2.54699 21.9996 2.24489 22 1.92276C22 1.60046 21.8752 1.298 21.6485 1.07192L20.9277 0.351285C20.7011 0.124309 20.399 0 20.0765 0C19.7546 0 19.4525 0.124309 19.2259 0.351285L11.0004 8.5766L2.7745 0.351285C2.54824 0.124309 2.24597 0 1.92366 0C1.60171 0 1.29943 0.124309 1.07317 0.351285L0.352 1.07192C-0.117333 1.54125 -0.117333 2.30463 0.352 2.77343L8.57767 10.9993L0.352 19.2248C0.125561 19.4516 0.000894309 19.7537 0.000894309 20.0758C0.000894309 20.3979 0.125561 20.7 0.352 20.9266L1.07299 21.6473C1.29925 21.8741 1.60171 21.9986 1.92348 21.9986C2.24579 21.9986 2.54806 21.8741 2.77433 21.6473L11.0002 13.4218L19.2257 21.6473C19.4523 21.8741 19.7544 21.9986 20.0763 21.9986H20.0767C20.3988 21.9986 20.7009 21.8741 20.9275 21.6473L21.6484 20.9266C21.8746 20.7002 21.9995 20.3979 21.9995 20.0758C21.9995 19.7537 21.8746 19.4516 21.6484 19.225L13.423 10.9993Z" fill="#133E59"/>
</svg>
