<svg width="23" height="22" viewBox="0 0 23 22" fill="none" xmlns="http://www.w3.org/2000/svg">
<g clip-path="url(#clip0)">
<path d="M15.1921 2.51735C11.836 -0.838781 6.37366 -0.838781 3.01753 2.51735C-0.337874 5.87421 -0.337874 11.3358 3.01753 14.6927C6.00625 17.6807 10.661 18.0008 14.015 15.6676C14.0856 16.0015 14.2471 16.3202 14.5068 16.5799L19.3944 21.4675C20.1067 22.1783 21.2576 22.1783 21.9662 21.4675C22.6778 20.756 22.6778 19.605 21.9662 18.8957L17.0786 14.0066C16.8204 13.7491 16.501 13.5868 16.167 13.5163C18.5017 10.1616 18.1816 5.50753 15.1921 2.51735ZM13.649 13.1496C11.1434 15.6552 7.06555 15.6552 4.56063 13.1496C2.05645 10.6439 2.05645 6.56682 4.56063 4.06118C7.06555 1.55627 11.1434 1.55627 13.649 4.06118C16.1547 6.56682 16.1547 10.6439 13.649 13.1496Z" fill="white"/>
</g>
<defs>
<clipPath id="clip0">
<rect width="22" height="22" fill="white" transform="translate(0.5)"/>
</clipPath>
</defs>
</svg>
