<svg width="52" height="28" viewBox="0 0 52 28" fill="none" xmlns="http://www.w3.org/2000/svg">
<path d="M35.6922 13.1984L24.8928 1.1991C24.6624 0.944712 24.3408 0.80072 24 0.80072H16.8004C16.3276 0.80072 15.8981 1.07911 15.7037 1.51108C15.5117 1.94546 15.5909 2.45183 15.9077 2.80221L25.9847 14L15.9077 25.1954C15.5909 25.5482 15.5093 26.0546 15.7037 26.4865C15.8981 26.9209 16.3276 27.1993 16.8004 27.1993H24C24.3408 27.1993 24.6624 27.0529 24.8928 26.8033L35.6922 14.804C36.1026 14.348 36.1026 13.652 35.6922 13.1984Z" fill="url(#paint0_linear)"/>
<path d="M20.0931 13.1984L9.29365 1.1991C9.06326 0.944712 8.74168 0.80072 8.40089 0.80072H1.20128C0.72851 0.80072 0.298933 1.07911 0.104544 1.51108C-0.0874458 1.94546 -0.0082501 2.45183 0.308533 2.80221L10.3856 14L0.308533 25.1954C-0.0082501 25.5482 -0.0898457 26.0546 0.104544 26.4865C0.298933 26.9209 0.72851 27.1993 1.20128 27.1993H8.40089C8.74168 27.1993 9.06326 27.0529 9.29365 26.8033L20.0931 14.804C20.5034 14.348 20.5034 13.652 20.0931 13.1984Z" fill="url(#paint1_linear)"/>
<path d="M51.0931 13.1984L40.2936 1.1991C40.0633 0.944712 39.7417 0.80072 39.4009 0.80072H32.2013C31.7285 0.80072 31.2989 1.07911 31.1045 1.51108C30.9126 1.94546 30.9917 2.45183 31.3085 2.80221L41.3856 14L31.3085 25.1954C30.9917 25.5482 30.9102 26.0546 31.1045 26.4865C31.2989 26.9209 31.7285 27.1993 32.2013 27.1993H39.4009C39.7417 27.1993 40.0633 27.0529 40.2936 26.8033L51.0931 14.804C51.5034 14.348 51.5034 13.652 51.0931 13.1984Z" fill="url(#paint2_linear)"/>
<defs>
<linearGradient id="paint0_linear" x1="25.7995" y1="0.80072" x2="25.7995" y2="27.1993" gradientUnits="userSpaceOnUse">
<stop stop-color="#7ACBFF"/>
<stop offset="1" stop-color="#133E59"/>
</linearGradient>
<linearGradient id="paint1_linear" x1="10.2004" y1="0.80072" x2="10.2004" y2="27.1993" gradientUnits="userSpaceOnUse">
<stop stop-color="#133E59"/>
<stop offset="1" stop-color="#7ACBFF"/>
</linearGradient>
<linearGradient id="paint2_linear" x1="41.2004" y1="0.80072" x2="41.2004" y2="27.1993" gradientUnits="userSpaceOnUse">
<stop stop-color="#7ACBFF"/>
<stop offset="1" stop-color="#133E59"/>
</linearGradient>
</defs>
</svg>
